PathFileType	4	(X/Y/Z)	C:/Users/beibeiliu/ov580/test_trc/User3\out7_training_dense_right.trc
DataRate	CameraRate	NumFrames	NumMarkers	Units	OrigDataRate	OrigDataStartFrame	OrigNumFrames
120	120	16	19	mm	120	251	500
Frame#	Time	ThumbCMC			ThumbMCP			ThumbIP			ThumbTip			IndexMCP			IndexPIP			IndexTip			MiddleMCP			MiddlePIP			MiddleTip			RingMCP			RingPIP			RingTip			PinkyMCP			PinkyPIP			PinkyTip			BackHand1			BackHand2			BackHand3	
		X0	Y0	Z0	X1	Y1	Z1	X2	Y2	Z2	X3	Y3	Z3	X4	Y4	Z4	X5	Y5	Z5	X6	Y6	Z6	X7	Y7	Z7	X8	Y8	Z8	X9	Y9	Z9	X10	Y10	Z10	X11	Y11	Z11	X12	Y12	Z12	X13	Y13	Z13	X14	Y14	Z14	X15	Y15	Z15	X16	Y16	Z16	X17	Y17	Z17	X18	Y18	Z18	
250	2.08333	175.15	71.548	23.2559	164.763	84.3049	-6.14499	159.693	86.7176	-37.652	149.867	72.0805	-57.6334	210.881	44.391	-40.4709	198.851	48.7238	-66.9597	172.138	66.976	-60.5447	196.717	26.034	-45.4716	176.059	37.2122	-69.9593	149.631	52.761	-45.2435	177.67	12.3309	-39.6097	155.775	25.0603	-57.3701	140.06	42.2379	-29.3278	161.942	3.42665	-32.271	141.707	19.6463	-45.3465	132.073	34.5575	-21.1331	185.807	8.72851	18.384	175.551	11.1583	44.0672	197.029	38.5641	28.3813	
251	2.09167	175.568	71.709	27.4091	165.319	79.6246	-2.34096	160.216	83.8407	-31.8958	152.768	70.7282	-58.0377	211.942	44.4097	-32.0632	201.613	53.1511	-64.6907	170.162	65.684	-55.6016	200.863	27.1301	-41.7897	179.126	38.0605	-67.0597	152.556	54.2346	-44.952	181.984	13.8412	-38.7734	158.226	23.1971	-56.3095	143.344	41.3946	-30.0378	164.198	0.241707	-30.9811	146.069	18.3408	-43.8617	133.538	35.5046	-21.7691	188.358	6.65557	18.2666	173.7	6.37847	45.3698	196.296	36.5375	31.5196	
252	2.1	173.643	70.0815	29.5628	167.975	80.0076	-4.16295	162.903	83.0222	-32.4579	154.965	70.4976	-52.2709	212.965	39.1912	-28.6379	204.108	49.9919	-61.0471	174.87	67.5447	-53.6016	203.333	25.7363	-39.3441	185.077	34.8128	-64.5646	155.526	51.9426	-38.8188	185.082	13.3027	-35.8313	162.77	23.3094	-54.6964	145.783	40.2065	-28.0998	170.354	3.29692	-28.3689	149.177	14.9891	-43.5426	134.444	30.2936	-21.1404	187.151	3.25098	22.422	173.061	4.42968	49.364	195.32	33.5281	36.353	
253	2.10833	175.749	68.6835	29.6355	167.958	77.0376	1.19071	167.844	82.3999	-33.9865	161.861	70.5431	-56.4355	219.765	43.1302	-25.0731	211.685	51.3572	-57.02	183.949	66.1409	-53.396	209.207	27.8202	-35.1821	188.103	36.8567	-61.5806	160.179	51.6496	-36.8592	190.014	11.5285	-34.7135	170.409	24.0847	-51.776	151.077	39.2824	-26.7309	173.207	-0.275099	-26.4594	157.446	14.0078	-42.7604	139.125	29.276	-21.1136	188.656	4.12789	22.9885	177.248	6.85637	52.3742	196.517	33.1447	40.5602	
254	2.11667	174.902	66.3027	33.5724	171.216	74.9018	0.546987	172.138	78.3768	-29.5181	168.288	63.4841	-51.7	224.555	40.1132	-24.1215	217.57	47.9823	-52.2038	186.247	66.941	-46.8327	215.065	27.4329	-31.0384	196.342	37.8089	-58.4898	165.836	48.6262	-32.9467	196.603	12.5316	-32.0224	175.244	25.7012	-50.426	156.921	38.0738	-23.2726	179.515	-2.38575	-26.0236	163.544	18.3597	-40.0497	148.193	28.2664	-19.3874	191.213	1.83492	28.234	180.334	7.08413	52.1624	198.115	35.8286	44.165	
255	2.125	176.588	68.0672	36.8069	176.657	76.1906	0.271764	176.837	81.2909	-29.9654	174.318	64.8148	-54.1931	227.985	42.6539	-16.3553	222.82	51.1579	-49.8279	190.247	65.533	-43.8572	220.634	26.5582	-29.5285	203.361	36.2951	-55.4501	173.578	47.4678	-35.4894	201.925	12.2477	-26.2165	179.123	24.9073	-47.6965	162.86	36.4467	-24.137	185.432	-3.0003	-23.3449	168.531	14.2277	-39.3671	153.142	27.7998	-20.2563	196.067	3.72769	27.8675	179.503	5.99236	57.156	200.752	37.5454	44.9672	
256	2.13333	181.348	65.5211	36.0402	178.442	74.899	3.75915	180.931	78.3971	-26.1022	177.843	64.8546	-45.8014	231.02	41.3329	-15.4637	227.972	51.2194	-45.8697	195.847	64.1142	-42.1022	223.465	23.7328	-23.5164	208.085	34.605	-52.676	176.45	48.823	-31.7766	208.729	15.5843	-27.0027	186.322	20.9118	-45.2824	166.227	35.7794	-23.2952	191.005	-1.72755	-22.8705	174.902	15.5838	-37.0109	156.388	26.3963	-21.3511	199.932	6.0787	32.8344	184.781	6.03948	57.878	201.904	33.1818	50.6109	
257	2.14167	181.399	68.1286	41.6151	180.113	73.5822	8.23479	181.409	80.1289	-21.7543	181.32	63.7611	-44.3643	235.143	44.6815	-13.1122	225.285	49.6638	-44.1316	197.837	62.9151	-39.0685	228.852	27.7571	-22.2043	213.308	36.3022	-49.5861	178.961	46.6379	-30.452	211.93	14.4029	-22.8245	190.048	22.752	-43.508	169.741	35.9717	-22.4166	193.729	-1.82235	-18.0979	179.669	10.8445	-36.025	157.913	25.6404	-17.5539	202.007	3.95415	32.3184	186.149	3.69588	59.589	203.015	34.1987	52.4778	
258	2.15	181.031	65.3092	42.6463	182.68	77.6805	7.02725	183.86	78.9222	-21.3702	182.387	63.1351	-45.6238	235.419	41.0343	-9.23954	227.802	49.1389	-42.9443	200.691	59.4893	-38.973	228.395	23.1211	-20.6374	212.989	37.7739	-49.3544	180.632	45.3805	-28.5756	212.363	9.29282	-24.1867	192.065	22.1067	-43.2779	170.596	33.4183	-18.2965	195.738	-1.86182	-13.0266	178.96	8.97524	-35.5467	161.546	25.4586	-16.7856	204.411	3.68621	36.7834	185.689	0.698143	58.998	207.015	34.8264	53.3975	
259	2.15833	183.543	65.2674	42.5629	183.29	72.4875	8.24701	185.574	76.4442	-20.4081	183.121	63.9698	-43.2756	239.174	43.5343	-10.4118	231.441	51.0058	-40.6271	200.329	63.1761	-35.8674	230.514	22.5196	-22.8364	216.362	37.289	-47.4558	182.792	42.4373	-31.422	215.467	11.9326	-18.8811	197.011	18.9444	-41.6064	173.943	34.0604	-21.541	198.025	-4.94596	-16.6657	180.09	11.2714	-34.2929	162.129	24.1752	-17.7792	206.171	0.684021	35.1601	184.122	0.512592	61.7402	205.878	36.7162	55.4261	
260	2.16667	183.432	66.0395	43.8445	182.625	73.3881	12.1464	186.701	79.3592	-19.6742	185.548	65.45	-45.8899	238.48	39.3765	-10.6434	232.855	46.72	-39.9054	201.314	61.627	-34.2819	230.832	23.204	-17.0953	218.263	34.197	-47.5056	183.909	44.7152	-29.9865	215.395	11.7097	-19.8535	195.964	22.1158	-41.6594	173.127	33.6775	-18.9197	197.939	-4.61449	-16.9867	181.266	9.22096	-33.4522	162.559	22.6726	-15.053	202.728	1.36156	37.7895	185.921	2.55451	62.5352	209.029	32.3083	52.8258	
261	2.175	183.591	62.6957	45.636	185.298	72.4149	9.75792	189.216	74.6149	-21.2706	186.923	58.7681	-41.226	238.733	40.5318	-7.26149	236.364	50.7904	-37.8017	203.127	59.9813	-33.8454	233.586	24.6424	-18.4094	217.112	32.0235	-45.6095	183.089	45.1973	-26.6045	216.166	9.95208	-20.0246	197.354	17.7049	-40.3102	173.821	33.7821	-16.9346	197.604	-4.02341	-10.4658	181.022	8.69609	-32.3547	164.887	25.913	-10.633	205.712	0.933362	37.9414	187.809	4.63889	63.4873	207.055	33.6333	55.2161	
262	2.18333	187.049	63.8374	44.9809	183.802	73.9719	14.8142	189.03	79.822	-16.1457	188.165	63.5367	-40.09	241.738	40.5828	-6.7316	235.318	46.5517	-35.3288	204.256	59.3291	-32.5289	232.941	21.7839	-16.328	217.285	33.5378	-44.1007	186.17	43.3644	-26.1793	217.307	9.50457	-14.98	198.486	21.6192	-37.6611	173.973	31.3856	-15.2002	199.426	-3.48076	-11.1714	185.058	9.62523	-30.5266	165.584	22.283	-13.0033	203.193	-0.970941	41.6335	189.108	0.48573	65.9206	210.634	31.3702	56.0444	
263	2.19167	188.777	63.1028	46.5722	188.442	73.4144	15.9871	194.854	77.2541	-16.0878	193.411	65.6562	-38.4292	244.852	41.1612	-1.54668	240.519	51.68	-32.1192	211.549	62.4861	-31.0429	235.597	22.4714	-10.4799	224.716	33.8571	-39.3007	189.561	47.9371	-22.8959	221.304	10.5931	-12.6858	201.769	18.768	-36.0854	177.604	30.481	-16.0336	202.315	-4.51964	-7.4516	188.515	10.3809	-27.7362	168.769	25.0974	-12.2938	206.232	1.24279	44.1949	189.345	1.42084	68.7705	207.895	33.1047	60.5524	
264	2.2	187.466	65.9111	53.1981	189.769	72.8246	20.8004	199.131	78.6839	-12.3172	197.207	65.6804	-32.1339	247.801	40.3841	2.78752	246.444	51.5282	-25.4134	215.733	60.5573	-27.1683	240.167	22.7584	-7.32391	228.676	34.0765	-36.3244	192.724	46.005	-19.189	223.731	8.36661	-8.39993	208.297	23.4996	-32.4055	181.788	32.2037	-9.90668	207.062	-1.89053	-3.938	194.811	12.1658	-26.2724	173.837	27.3204	-7.68058	205.787	-1.31625	46.8183	190.553	2.42629	68.26	209.039	32.6022	63.8432	
265	2.20833	190.588	61.4183	52.6847	194.785	73.782	21.0925	203.729	80.9456	-9.31265	204.714	66.9231	-33.6315	249.757	39.9629	9.39332	250.667	50.5541	-21.3989	218.476	63.2641	-22.6757	246.308	24.7664	-4.57793	235.288	36.0723	-30.8629	199.028	44.2876	-18.4657	228.606	12.2324	-6.11522	210.024	22.5263	-30.0214	188.29	33.5965	-11.9831	211.32	-3.89459	-5.18325	201.444	10.6425	-24.3167	175.982	23.9305	-8.29383	210.456	-0.122742	45.1984	188.921	1.46354	73.2794	211.203	32.9113	67.1138	
